HIERARCHY
ROOT hip
{
	OFFSET 0.000000 0.000000 0.000000 
	CHANNELS 6 Xposition Yposition Zposition Xrotation Zrotation Yrotation
	JOINT abdomen
	{
		OFFSET 0.000000 3.402643 0.000000 
		CHANNELS 3 Xrotation Zrotation Yrotation
		JOINT chest
		{
			OFFSET 0.000000 8.438565 -0.680529 
			CHANNELS 3 Xrotation Zrotation Yrotation
			JOINT neck
			{
				OFFSET 0.000000 10.207942 -0.272212 
				CHANNELS 3 Xrotation Zrotation Yrotation
				JOINT head
				{
					OFFSET 0.000000 3.130431 0.000000 
					CHANNELS 3 Xrotation Zrotation Yrotation
					End Site
					{
						OFFSET 0.000000 3.130435 0.000000 
					}
				}
			}
			JOINT lCollar
			{
				OFFSET 3.470700 6.669187 -0.816635 
				CHANNELS 3 Yrotation Zrotation Xrotation
				JOINT lShldr
				{
					OFFSET 3.198488 0.000000 0.000000 
					CHANNELS 3 Zrotation Yrotation Xrotation
					JOINT lForeArm
					{
						OFFSET 10.139888 0.000000 0.000000 
						CHANNELS 3 Yrotation Zrotation Xrotation
						JOINT lHand
						{
							OFFSET 8.370511 0.000000 0.000000 
							CHANNELS 3 Zrotation Yrotation Xrotation
							End Site
							{
								OFFSET 4.083176 0.000000 0.000000 
							}
						}
					}
				}
			}
			JOINT rCollar
			{
				OFFSET -3.470700 6.669187 -0.816635 
				CHANNELS 3 Yrotation Zrotation Xrotation
				JOINT rShldr
				{
					OFFSET -3.198488 0.000000 0.000000 
					CHANNELS 3 Zrotation Yrotation Xrotation
					JOINT rForeArm
					{
						OFFSET -10.139888 0.000000 0.000000 
						CHANNELS 3 Yrotation Zrotation Xrotation
						JOINT rHand
						{
							OFFSET -8.370511 0.000000 0.000000 
							CHANNELS 3 Zrotation Yrotation Xrotation
							End Site
							{
								OFFSET -4.083176 0.000000 0.000000 
							}
						}
					}
				}
			}
		}
	}
	JOINT lThigh
	{
		OFFSET 5.308129 -1.633274 1.361059 
		CHANNELS 3 Xrotation Zrotation Yrotation
		JOINT lShin
		{
			OFFSET -2.041588 -20.007561 0.000000 
			CHANNELS 3 Xrotation Zrotation Yrotation
			JOINT lFoot
			{
				OFFSET 0.000000 -19.190928 -1.224953 
				CHANNELS 3 Xrotation Yrotation Zrotation
				End Site
				{
					OFFSET 0.000000 -2.449906 4.627600 
				}
			}
		}
	}
	JOINT rThigh
	{
		OFFSET -5.308129 -1.633274 1.361059 
		CHANNELS 3 Xrotation Zrotation Yrotation
		JOINT rShin
		{
			OFFSET 2.041588 -20.007561 0.000000 
			CHANNELS 3 Xrotation Zrotation Yrotation
			JOINT rFoot
			{
				OFFSET 0.000000 -19.190928 -1.224953 
				CHANNELS 3 Xrotation Yrotation Zrotation
				End Site
				{
					OFFSET 0.000000 -2.449906 4.627600 
				}
			}
		}
	}
}
MOTION
Frames: 8
Frame Time: 0.033333
-6.309330 40.603699 0.134087 -8.701811 -8.006262 -7.594070 0.000000 0.000000 0.000000 32.212975 -3.129621 3.285948 14.755162 8.802410 2.164281 -32.915157 -5.299423 5.325101 -2.556139 14.476183 0.612868 -3.160207 -2.157679 -4.758949 -84.293648 -9.968903 1.231582 2.290382 -3.538901 -3.565149 -35.962006 3.055348 2.124667 -4.214954 0.211560 49.689007 76.168182 -31.988604 -9.967127 -3.108776 1.888291 -3.553714 -11.568157 14.994625 0.416321 36.656940 -4.382202 12.231099 -17.741831 0.276475 0.135096 15.048500 -8.788924 -0.663622 37.100231 4.655002 -5.620109 -15.965996 -0.256730 0.278354 
-6.174982 40.663410 0.542107 -8.709774 -7.998057 -8.029011 0.000000 0.000000 0.000000 32.443512 -4.310678 2.957017 14.403502 8.822316 2.095233 -32.928543 -5.367743 5.295924 -3.088593 13.860657 0.702547 -3.926525 -1.814293 -3.564446 -84.003700 -10.519240 1.297044 2.295238 -3.626955 -3.559206 -35.469662 1.206705 0.787724 -4.136664 -0.380077 51.108639 76.951141 -31.599556 -9.308273 -3.113244 1.975746 -3.554580 -10.772096 14.805208 0.548259 36.632774 -4.825829 12.520356 -18.454668 0.289227 0.133554 12.723492 -9.003611 -0.698970 41.396225 4.246934 -5.046189 -14.042498 -0.187993 0.207716 
-6.040637 40.723125 0.950117 -8.705217 -7.998858 -8.472255 0.000000 0.000000 0.000000 32.677860 -5.492294 2.628531 14.051442 8.832453 2.026186 -32.932095 -5.436066 5.267671 -3.618925 13.233772 0.789814 -4.688803 -1.450572 -2.379074 -83.702614 -11.068837 1.366307 2.300703 -3.714618 -3.562392 -35.027546 -0.654039 -0.543778 -4.076358 -0.977619 52.513710 77.734596 -31.201212 -8.644402 -3.117670 2.063222 -3.555848 -9.959929 14.607746 0.691829 36.580196 -5.300583 12.824029 -19.147989 0.292662 0.148981 10.383389 -9.212207 -0.725110 45.655960 3.779285 -4.483092 -12.118910 -0.123410 0.133483 
-5.941115 40.738052 1.353166 -8.791216 -7.999589 -8.896151 0.000000 0.000000 0.000000 32.936127 -6.586798 2.240983 13.787746 9.017776 2.047000 -32.932095 -5.436066 5.267671 -3.875778 12.447736 0.806518 -5.462221 -0.940284 -1.008764 -83.766174 -10.913798 1.357772 2.300703 -3.714618 -3.562392 -34.963551 -2.242520 -1.643296 -4.433810 -1.153183 52.532341 78.252991 -30.073269 -8.122657 -3.117670 2.063222 -3.555848 -9.110866 14.637638 0.572686 36.771980 -6.051206 13.335451 -19.753382 0.305980 0.147721 8.297844 -9.302789 -0.707639 50.046352 3.574829 -3.173954 -11.230241 -0.122503 0.243016 
-5.841601 40.752979 1.756192 -8.877139 -7.999864 -9.320037 0.000000 0.000000 0.000000 33.199554 -7.681578 1.852091 13.532014 9.193389 2.058195 -32.932095 -5.436066 5.267671 -4.129986 11.652461 0.813880 -6.223161 -0.402996 0.358270 -83.829903 -10.748994 1.347317 2.300703 -3.714618 -3.562392 -34.936234 -3.840270 -2.742928 -4.777638 -1.330433 52.551849 78.753738 -28.935928 -7.629241 -3.117670 2.063222 -3.555848 -8.247510 14.650648 0.453660 36.951523 -6.808460 13.873548 -20.359402 0.267287 0.149053 6.206107 -9.388428 -0.687234 54.415096 3.269044 -1.913225 -10.350983 -0.090755 0.377677 
-5.757010 40.733070 2.159256 -9.145753 -7.992609 -9.636206 0.000000 0.000000 0.000000 33.654396 -8.668787 1.539883 13.187131 9.554366 2.080675 -32.915157 -5.299423 5.325101 -4.128700 10.864774 0.762394 -7.266164 0.104010 1.896609 -84.482452 -10.029547 1.229656 2.295238 -3.626955 -3.559206 -35.351593 -5.040060 -3.638851 -5.367839 -0.990550 50.644974 78.870514 -26.561760 -7.091956 -3.117670 2.063222 -3.555848 -7.205597 14.675226 0.514350 36.944103 -7.370991 13.965042 -21.149532 0.332409 0.179961 4.139561 -9.501363 -0.665843 58.517414 3.054456 -0.575751 -10.536990 -0.088601 0.173183 
-5.672422 40.713165 2.562305 -9.421099 -7.994496 -9.962038 0.000000 0.000000 0.000000 34.120106 -9.656025 1.228178 12.840460 9.905637 2.091973 -32.908627 -5.172523 5.382572 -4.119100 10.077211 0.711048 -8.287371 0.637235 3.420532 -85.132545 -9.318212 1.122096 2.290382 -3.538901 -3.565149 -35.785400 -6.224060 -4.542584 -5.963316 -0.672806 48.737438 78.950836 -24.197680 -6.581483 -3.117670 2.063222 -3.555848 -6.170094 14.692638 0.564349 36.975475 -7.954697 14.066884 -21.968985 0.378144 0.234024 2.059596 -9.616153 -0.650851 62.625484 2.732913 0.777814 -10.722101 -0.105803 -0.041062 
-5.607737 40.678333 2.960370 -9.776098 -7.981761 -10.089079 0.000000 0.000000 0.000000 34.575253 -10.476977 0.992243 12.496070 10.266595 2.114640 -32.986698 -5.025375 5.538218 -4.100477 9.368571 0.650245 -9.586378 1.136129 4.948488 -86.104324 -8.423494 0.996994 2.290382 -3.538901 -3.565149 -36.375767 -6.889802 -5.130703 -6.756118 -0.070979 44.207722 78.786034 -20.185251 -5.888367 -3.117670 2.063222 -3.555848 -5.185534 14.744022 0.632606 37.203415 -8.548842 14.014068 -22.585163 0.371194 0.119484 0.487450 -9.520639 -0.624361 65.944931 2.868682 1.386261 -11.249492 -0.134868 0.041579 
